Coordinates
nRows=142
nColumns=2
inDegrees=yes
endheader
time	ankle_angle_r	
3.1248	  9.750342	
3.1873	  9.715869	
3.24979	  9.755362	
3.31229	  9.782264	
3.37478	  9.790973	
3.43728	  9.789768	
3.49978	  9.743906	
3.56227	  9.708942	
3.62477	  9.703033	
3.68726	  9.721480	
3.74976	  9.770566	
3.81226	  9.783112	
3.87475	  9.742532	
3.93725	  9.676983	
3.99974	  9.631233	
4.06224	  9.631825	
4.12474	  9.611457	
4.18723	  9.621004	
4.24973	  9.698270	
4.31222	  9.717465	
4.37472	  9.693674	
4.43722	  9.667894	
4.49971	  9.636454	
4.56221	  9.652247	
4.6247	  9.662336	
4.6872	  9.663099	
4.7497	  9.691578	
4.81219	  9.695443	
4.87469	  9.692961	
4.93718	  9.663196	
4.99968	  9.604268	
5.06218	  9.624912	
5.12467	  9.699974	
5.18717	  9.753634	
5.24966	  9.774463	
5.31216	  9.761038	
5.37466	  9.758904	
5.43715	  9.774040	
5.49965	  9.761445	
5.56214	  9.723386	
5.62464	  9.709630	
5.68714	  9.751484	
5.74963	  9.798311	
5.81213	  9.815001	
5.87462	  9.785866	
5.93712	  9.711133	
5.99962	  9.688770	
6.06211	  9.710919	
6.12461	  9.696582	
6.1871	  9.685531	
6.2496	  9.700666	
6.3121	  9.717246	
6.37459	  9.689624	
6.43709	  9.621819	
6.49958	  9.603859	
6.56208	  9.632366	
6.62458	  9.681849	
6.68707	  9.748891	
6.74957	  9.787324	
6.81206	  9.783378	
6.87456	  9.729208	
6.93706	  9.689699	
6.99955	  9.710644	
7.06205	  9.709574	
7.12454	  9.720989	
7.18704	  9.782287	
7.24954	  9.811924	
7.31203	  9.806325	
7.37453	  9.773695	
7.43702	  9.728539	
7.49952	  9.699424	
7.56202	  9.670100	
7.62451	  9.681904	
7.68701	  9.707499	
7.7495	  9.675748	
7.812	  9.655663	
7.8745	  9.654256	
7.93699	  9.621428	
7.99949	  9.612076	
8.06198	  9.654297	
8.12448	  9.699455	
8.18698	  9.726857	
8.24947	  9.762805	
8.31197	  9.772159	
8.37446	  9.731231	
8.43696	  9.724617	
8.49946	  9.748800	
8.56195	  9.760231	
8.62445	  9.783149	
8.68694	  9.798960	
8.74944	  9.806255	
8.81194	  9.784674	
8.87443	  9.720671	
8.93693	  9.693157	
8.99942	  9.692071	
9.06192	  9.696314	
9.12442	  9.714471	
9.18691	  9.696387	
9.24941	  9.676382	
9.3119	  9.671070	
9.3744	  9.657300	
9.4369	  9.657498	
9.49939	  9.659275	
9.56189	  9.682702	
9.62438	  9.711784	
9.68688	  9.730353	
9.74938	  9.772731	
9.81187	  9.752410	
9.87437	  9.702747	
9.93686	  9.736497	
9.99936	  9.752672	
10.0619	  9.736253	
10.1244	  9.757089	
10.1868	  9.773911	
10.2493	  9.784320	
10.3118	  9.781765	
10.3743	  9.749434	
10.4368	  9.717422	
10.4993	  9.713407	
10.5618	  9.763359	
10.6243	  9.822765	
10.6868	  9.826999	
10.7493	  9.775177	
10.8118	  9.717737	
10.8743	  9.716940	
10.9368	  9.739840	
10.9993	  9.761451	
11.0618	  9.791305	
11.1243	  9.788739	
11.1868	  9.777591	
11.2493	  9.746870	
11.3118	  9.681955	
11.3743	  9.664839	
11.4368	  9.658865	
11.4993	  9.663514	
11.5618	  9.708502	
11.6243	  9.695320	
11.6868	  9.683161	
11.7492	  9.708106	
11.8117	  9.679214	
11.8742	  9.665072	
11.9367	  9.719955	
